<svg width="528" height="481" viewBox="0 0 528 481" fill="none" xmlns="http://www.w3.org/2000/svg">
<g clip-path="url(#clip0_1324_26174)">
<path d="M179.594 213.611L174.827 226.936C170.083 240.201 169.538 255.153 174.154 270.376C187.124 313.164 235.925 341.951 283.149 334.675C313.571 329.993 335.919 311.487 344.507 287.475L349.269 274.164C340.677 298.169 318.331 316.663 287.917 321.351C240.693 328.626 191.892 299.839 178.921 257.052C174.305 241.823 174.851 226.877 179.594 213.611Z" fill="#BFFF15" stroke="#155000"/>
<path d="M380.68 314.573L385.448 301.248C384.021 305.23 382.322 309.067 380.332 312.728C367.094 337.084 341.023 353.841 298.029 352.949C254.21 352.042 220.24 344.338 195.013 329.513C169.891 314.755 153.04 292.717 143.845 262.391C135.997 236.487 133.436 214.931 140.022 196.521L135.254 209.845C128.668 228.256 131.224 249.813 139.077 275.716C148.272 306.041 165.129 328.084 190.246 342.838C215.472 357.663 249.443 365.366 293.261 366.274C336.255 367.166 362.332 350.408 375.564 326.053C377.555 322.392 379.253 318.555 380.68 314.573Z" fill="#BFFF15" stroke="#155000"/>
<path d="M383.087 238.115C401.825 299.938 381.736 370.917 293.455 369.087C205.17 367.258 154.7 338.003 135.963 276.18C117.224 214.352 127.518 174.374 225.594 145.203C323.664 116.038 364.343 176.288 383.087 238.115ZM293.215 366.271C336.209 367.163 362.28 350.406 375.518 326.05C388.846 301.526 389.255 269.034 380.025 238.587C370.702 207.829 356.076 178.074 332.143 159.581C308.53 141.33 275.151 133.528 226.873 147.885C178.089 162.398 151.832 179.41 139.834 199.929C127.857 220.412 129.728 245.012 139.035 275.707C148.23 306.032 165.081 328.07 190.204 342.829C215.43 357.654 249.402 365.363 293.22 366.27" fill="#86B30F"/>
<path d="M293.215 366.271C336.209 367.163 362.28 350.406 375.518 326.05C388.846 301.526 389.255 269.034 380.025 238.587C370.702 207.829 356.076 178.074 332.143 159.581C308.53 141.33 275.151 133.528 226.873 147.885C178.089 162.398 151.832 179.41 139.834 199.929C127.857 220.412 129.728 245.012 139.035 275.707C148.23 306.032 165.081 328.07 190.204 342.829C215.43 357.654 249.402 365.363 293.22 366.27M383.087 238.115C401.825 299.938 381.736 370.917 293.455 369.087C205.17 367.258 154.7 338.003 135.963 276.18C117.224 214.352 127.518 174.374 225.594 145.203C323.664 116.038 364.343 176.288 383.087 238.115Z" stroke="#155000"/>
<path d="M383.696 315.658L388.463 302.333C396.799 279.034 395.853 251.088 387.883 224.795C369.139 162.968 328.461 102.722 230.39 131.888C173.697 148.749 146.335 169.224 136.958 195.44L132.196 208.75C141.577 182.541 168.94 162.07 225.623 145.212C323.699 116.046 364.377 176.291 383.115 238.119C391.085 264.413 392.031 292.359 383.696 315.658Z" fill="#BFFF15" stroke="#155000"/>
<path d="M108.923 188.264L104.155 201.588C95.4597 225.904 94.4593 253.298 102.918 281.204C126.687 359.61 216.118 412.369 302.67 399.039C358.417 390.451 399.373 356.539 415.112 312.538L419.873 299.234C404.128 343.225 363.176 377.127 307.437 385.714C220.887 399.05 131.45 346.292 107.686 267.88C99.2269 239.973 100.227 212.579 108.923 188.264Z" fill="#BFFF15" stroke="#155000"/>
<path d="M418.593 313.776L423.36 300.453C432.252 275.593 433.269 247.595 424.619 219.067C400.322 138.9 308.89 84.9623 220.404 98.5944C163.411 107.371 121.541 142.043 105.447 187.027L100.682 200.345C116.778 155.364 158.647 120.695 215.637 111.919C304.124 98.2923 395.554 152.225 419.852 232.391C428.501 260.919 427.486 288.922 418.593 313.776Z" fill="#BFFF15" stroke="#155000"/>
<path d="M419.839 232.388C444.136 312.55 392.104 388.582 303.613 402.215C215.127 415.847 123.695 361.909 99.3987 281.747C75.1012 201.581 127.133 125.549 215.62 111.922C304.106 98.29 395.537 152.228 419.835 232.395L419.839 232.388ZM102.903 281.207C126.667 359.618 216.104 412.376 302.654 399.041C389.211 385.709 440.104 311.335 416.335 232.929C392.566 154.518 303.139 101.758 216.583 115.09C130.032 128.42 79.1328 202.796 102.903 281.207Z" fill="#86B30F" stroke="#155000"/>
<path d="M502.197 378.375L506.965 365.05C505.091 370.277 502.948 375.365 500.523 380.281C488.639 404.359 469.934 424.456 442.673 438.257C415.382 452.074 379.085 459.788 331.623 458.422C235.034 455.635 168.115 440.3 120.957 411.494C74.1408 382.906 45.4475 340.185 27.165 279.865C13.2729 234.036 11.4157 196.494 23.0674 163.911L18.2998 177.236C6.64727 209.813 8.50534 247.361 22.3974 293.19C40.6799 353.51 69.3723 396.225 116.189 424.819C163.349 453.63 230.267 468.96 326.855 471.746C374.316 473.107 410.614 465.399 437.906 451.582C465.167 437.786 483.871 417.684 495.756 393.605C498.185 388.689 500.325 383.607 502.197 378.375Z" fill="#BFFF15" stroke="#155000"/>
<path d="M505.453 218.79C542.684 341.612 521.792 484.588 327.391 478.985C132.991 473.393 51.7399 417.233 14.509 294.411C-22.7228 171.583 23.5122 102.241 192.577 34.2153C361.641 -33.8155 468.227 95.9623 505.453 218.79ZM326.842 471.75C374.304 473.116 410.601 465.403 437.893 451.586C465.153 437.784 483.858 417.688 495.743 393.609C519.632 345.196 515.947 280.601 497.577 220.002C479.219 159.445 443.983 98.059 393.551 60.2683C368.46 41.4639 339.663 28.5206 307.143 24.2452C274.601 19.9623 237.742 24.2855 196.545 40.8616C112.388 74.7191 60.1968 108.412 33.2877 147.939C6.64443 187.082 4.125 232.986 22.3799 293.2C40.6624 353.52 69.3557 396.241 116.171 424.829C163.33 453.635 230.249 468.97 326.838 471.757" fill="#86B30F"/>
<path d="M326.842 471.75C374.304 473.116 410.601 465.403 437.893 451.586C465.153 437.784 483.858 417.688 495.743 393.609C519.632 345.196 515.947 280.601 497.577 220.002C479.219 159.445 443.983 98.059 393.551 60.2683C368.46 41.4639 339.663 28.5206 307.143 24.2452C274.601 19.9623 237.742 24.2855 196.545 40.8616C112.388 74.7191 60.1968 108.412 33.2877 147.939C6.64441 187.082 4.12499 232.986 22.3799 293.2C40.6624 353.52 69.3557 396.241 116.171 424.829C163.33 453.635 230.249 468.97 326.838 471.757M505.453 218.79C542.684 341.612 521.792 484.588 327.391 478.985C132.991 473.393 51.7399 417.233 14.509 294.411C-22.7228 171.583 23.5122 102.241 192.577 34.2153C361.641 -33.8155 468.227 95.9623 505.453 218.79Z" stroke="#155000"/>
<path d="M514.787 367.828L510.02 381.152C527.189 333.152 522.194 273.929 505.473 218.775C468.247 95.9468 361.662 -33.8256 192.598 34.2053C88.6007 76.0491 31.0795 118.391 10.8752 173.377L10.4967 174.434L10.4914 174.435C10.6178 174.082 10.7457 173.729 10.8752 173.377L15.2643 161.11C35.1172 105.608 92.7072 62.9918 197.371 20.8798C366.429 -47.1502 473.009 82.6231 510.241 205.45C526.962 260.604 531.956 319.822 514.787 367.828Z" fill="#BFFF15" stroke="#155000"/>
<path d="M466.545 357.463L471.306 344.157C467.835 353.855 463.075 362.674 457.157 370.575C431.157 405.312 381.895 423.665 317.494 420.795C306.382 420.303 295.595 419.914 285.099 419.547C264.174 418.819 244.446 418.124 225.808 416.631C197.912 414.389 173.346 410.386 152.302 402.063C131.458 393.82 113.9 381.272 100.004 361.544C91.2861 349.18 83.926 333.876 78.1624 314.863C74.6691 303.328 71.7577 290.428 69.4955 275.992C60.9757 221.707 62.8781 182.325 73.2428 153.349L68.4753 166.674C58.1105 195.65 56.2081 235.031 64.728 289.316C66.9902 303.753 69.8961 316.654 73.3948 328.187C79.1584 347.201 86.5185 362.504 95.2366 374.869C109.132 394.591 126.69 407.145 147.534 415.388C168.577 423.705 193.144 427.708 221.041 429.955C239.679 431.454 259.412 432.142 280.332 432.872C290.833 433.238 301.615 433.627 312.727 434.119C377.128 436.989 426.389 418.632 452.389 383.9C458.311 375.993 463.074 367.169 466.545 357.463Z" fill="#BFFF15" stroke="#155000"/>
<path d="M472.629 359.615L477.396 346.291C486.965 319.537 487.022 286.659 475.458 248.505C472.169 237.646 467.943 226.363 462.718 214.669C401.678 78.0041 318.429 47.4728 208.109 64.4652C136.723 75.4639 86.8776 96.0549 67.1678 151.164L62.4051 164.475C82.1237 109.375 131.966 88.7814 203.341 77.7898C313.661 60.7974 396.911 91.3287 457.951 227.993C463.175 239.688 467.402 250.97 470.696 261.828C482.265 299.982 482.197 332.862 472.629 359.615Z" fill="#BFFF15" stroke="#155000"/>
<path d="M470.66 261.816C505.835 377.859 433.496 445.089 313.015 439.718C302.07 439.234 291.362 438.855 280.899 438.488C177.29 434.864 98.4555 432.113 67.2346 329.106C63.652 317.282 60.6957 304.129 58.4004 289.516C34.1046 134.695 92.9811 94.7709 203.306 77.7777C313.625 60.7853 396.875 91.3167 457.915 227.981C463.14 239.676 467.372 250.957 470.66 261.816ZM312.696 434.093C377.097 436.964 426.359 418.611 452.359 383.874C473.899 355.093 480.125 314.193 464.541 262.787C461.321 252.16 457.167 241.093 452.032 229.583C421.803 161.896 386.532 121.564 346.217 100.005C305.966 78.4694 259.383 74.9516 204.989 83.3284C150.228 91.7624 109.822 105.698 85.6577 135.533C61.4717 165.406 52.6295 212.395 64.6971 289.29C66.9593 303.727 69.8707 316.627 73.3639 328.161C79.1276 347.175 86.4877 362.478 95.2058 374.843C109.102 394.57 126.659 407.119 147.503 415.362C168.547 423.685 193.114 427.688 221.01 429.929C239.648 431.423 259.375 432.117 280.301 432.846C290.797 433.213 301.594 433.594 312.706 434.086" fill="#86B30F"/>
<path d="M312.696 434.093C377.097 436.964 426.359 418.611 452.359 383.874C473.899 355.093 480.125 314.193 464.541 262.787C461.321 252.16 457.167 241.093 452.032 229.583C421.803 161.896 386.532 121.564 346.217 100.005C305.966 78.4694 259.383 74.9516 204.989 83.3284C150.228 91.7624 109.822 105.698 85.6577 135.533C61.4717 165.406 52.6295 212.395 64.6971 289.29C66.9593 303.727 69.8707 316.627 73.3639 328.161C79.1276 347.175 86.4877 362.478 95.2058 374.843C109.102 394.57 126.659 407.119 147.503 415.362C168.547 423.685 193.114 427.688 221.01 429.929C239.648 431.423 259.375 432.117 280.301 432.846C290.797 433.213 301.594 433.594 312.706 434.086M470.66 261.816C505.835 377.859 433.496 445.09 313.015 439.718C302.07 439.234 291.362 438.855 280.899 438.488C177.29 434.864 98.4556 432.113 67.2346 329.106C63.652 317.282 60.6957 304.13 58.4005 289.516C34.1046 134.695 92.9811 94.7709 203.306 77.7777C313.625 60.7853 396.875 91.3167 457.915 227.981C463.14 239.676 467.372 250.957 470.66 261.816Z" stroke="#155000"/>
<path d="M347.784 243.629C361.153 287.734 332.527 329.561 283.847 337.058C235.167 344.554 184.876 314.885 171.506 270.779C158.138 226.68 186.764 184.853 235.439 177.357C284.119 169.86 334.415 199.529 347.784 243.629ZM174.126 270.376C187.097 313.164 235.899 341.956 283.123 334.681C330.352 327.405 358.129 286.82 345.158 244.033C332.188 201.251 283.387 172.459 236.157 179.735C188.933 187.01 161.156 227.594 174.126 270.376Z" fill="#86B30F"/>
<path d="M347.784 243.629L348.262 243.484L348.262 243.484L347.784 243.629ZM171.506 270.779L171.985 270.634L171.985 270.634L171.506 270.779ZM235.439 177.357L235.515 177.851L235.439 177.357ZM174.126 270.376L174.605 270.231L174.605 270.231L174.126 270.376ZM283.123 334.681L283.199 335.175L283.123 334.681ZM345.158 244.033L345.637 243.888L345.637 243.888L345.158 244.033ZM236.157 179.735L236.233 180.229L236.157 179.735ZM347.786 243.629L348.265 243.484L348.265 243.484L347.786 243.629ZM283.849 337.057L283.773 336.563L283.849 337.057ZM171.509 270.779L171.987 270.634L171.987 270.634L171.509 270.779ZM235.441 177.357L235.517 177.851L235.441 177.357ZM283.125 334.68L283.049 334.186L283.049 334.186L283.125 334.68ZM345.161 244.033L345.639 243.888L345.639 243.888L345.161 244.033ZM236.16 179.734L236.236 180.229L236.16 179.734ZM174.129 270.376L174.607 270.231L174.607 270.231L174.129 270.376ZM220.731 326.77L220.507 327.217C220.694 327.311 220.92 327.278 221.073 327.135C221.226 326.991 221.274 326.768 221.192 326.575L220.731 326.77ZM219.238 323.253L219.699 323.058C219.654 322.953 219.576 322.867 219.476 322.813L219.238 323.253ZM347.305 243.774C360.575 287.552 332.189 329.107 283.771 336.563L283.923 337.552C332.864 330.015 361.731 287.917 348.262 243.484L347.305 243.774ZM283.771 336.563C235.311 344.026 185.275 314.477 171.985 270.634L171.028 270.924C184.476 315.292 235.022 345.083 283.923 337.552L283.771 336.563ZM171.985 270.634C158.716 226.862 187.102 185.307 235.515 177.851L235.363 176.863C186.426 184.399 157.56 226.497 171.028 270.924L171.985 270.634ZM235.515 177.851C283.974 170.388 334.016 199.936 347.305 243.774L348.262 243.484C334.814 199.122 284.263 169.332 235.363 176.863L235.515 177.851ZM173.648 270.521C186.698 313.571 235.754 342.484 283.199 335.175L283.047 334.187C236.043 341.428 187.496 312.756 174.605 270.231L173.648 270.521ZM283.199 335.175C330.69 327.858 358.707 287.003 345.637 243.888L344.68 244.178C357.551 286.638 330.015 326.951 283.047 334.187L283.199 335.175ZM345.637 243.888C332.587 200.844 283.531 171.931 236.081 179.241L236.233 180.229C283.242 172.987 331.789 201.658 344.68 244.178L345.637 243.888ZM236.081 179.241C188.596 186.556 160.579 227.412 173.648 270.521L174.605 270.231C161.734 227.777 189.271 187.464 236.233 180.229L236.081 179.241ZM347.308 243.774C360.577 287.551 332.191 329.106 283.773 336.563L283.925 337.551C332.867 330.014 361.733 287.917 348.265 243.484L347.308 243.774ZM171.987 270.634C158.718 226.862 187.104 185.307 235.517 177.851L235.365 176.863C186.429 184.399 157.562 226.496 171.03 270.924L171.987 270.634ZM235.517 177.851C283.977 170.388 334.019 199.936 347.308 243.774L348.265 243.484C334.817 199.122 284.265 169.332 235.365 176.863L235.517 177.851ZM283.201 335.175C330.692 327.858 358.709 287.003 345.639 243.888L344.682 244.178C357.553 286.637 330.017 326.95 283.049 334.186L283.201 335.175ZM345.639 243.888C332.59 200.844 283.533 171.93 236.083 179.24L236.236 180.229C283.245 172.986 331.792 201.658 344.682 244.178L345.639 243.888ZM236.083 179.24C188.598 186.556 160.581 227.411 173.65 270.521L174.607 270.231C161.737 227.777 189.273 187.464 236.236 180.229L236.083 179.24ZM283.773 336.563C282.8 336.713 281.827 336.848 280.854 336.968L280.976 337.96C281.96 337.839 282.943 337.703 283.925 337.551L283.773 336.563ZM282.357 335.301C282.638 335.26 282.92 335.218 283.201 335.175L283.049 334.186C282.77 334.229 282.492 334.271 282.213 334.311L282.357 335.301ZM220.956 326.323C197.701 314.644 179.312 294.8 171.987 270.634L171.03 270.924C178.446 295.39 197.045 315.434 220.507 327.217L220.956 326.323ZM173.65 270.521C180.554 293.295 197.534 312.106 219.001 323.693L219.476 322.813C198.204 311.331 181.423 292.714 174.607 270.231L173.65 270.521ZM218.778 323.449L220.271 326.966L221.192 326.575L219.699 323.058L218.778 323.449Z" fill="#155000"/>
<path d="M347.191 288.766L351.959 275.441C356.854 261.766 357.411 246.359 352.655 230.661C339.287 186.561 288.99 156.892 240.31 164.389C208.956 169.217 185.924 188.288 177.069 213.037L172.303 226.358C181.158 201.611 204.19 182.541 235.543 177.713C284.223 170.217 334.519 199.886 347.888 243.985C352.643 259.684 352.081 275.091 347.191 288.766Z" fill="#BFFF15" stroke="#155000"/>
</g>
<defs>
<clipPath id="clip0_1324_26174">
<rect width="528" height="481" fill="white"/>
</clipPath>
</defs>
</svg>
