<svg width="1051" height="930" viewBox="0 0 1051 930" fill="none" xmlns="http://www.w3.org/2000/svg">
<g clip-path="url(#clip0_1324_21271)">
<path d="M355.849 497.169L348.678 470.613C341.545 444.176 342.808 415.123 354.111 386.343C385.877 305.455 484.893 257.25 575.26 278.67C633.474 292.461 673.903 331.782 686.819 379.636L693.982 406.163C681.058 358.322 640.631 319.024 582.431 305.225C492.063 283.805 393.048 332.011 361.282 412.899C349.977 441.689 348.716 470.731 355.849 497.169Z" fill="#BFFF15" stroke="#155000"/>
<path d="M761.064 332.727L768.235 359.282C766.087 351.346 763.392 343.649 760.103 336.247C738.232 287.004 690.319 250.495 606.881 245.555C521.843 240.517 454.831 250.174 403.656 274.985C352.692 299.683 316.626 339.767 294.108 397.097C274.885 446.068 266.581 487.434 276.485 524.126L269.314 497.571C259.41 460.879 267.704 419.51 286.938 370.541C309.456 313.212 345.535 273.119 396.485 248.429C447.661 223.619 514.672 213.961 599.711 219C683.149 223.939 731.072 260.451 752.933 309.691C756.222 317.093 758.917 324.79 761.064 332.727Z" fill="#BFFF15" stroke="#155000"/>
<path d="M753.916 481.21C799.808 364.337 771.894 223.7 600.569 213.554C429.233 203.405 326.913 252.26 281.021 369.133C235.127 486.017 248.871 565.071 434.366 636.8C619.852 708.517 708.011 598.092 753.916 481.21ZM599.666 218.973C683.104 223.913 731.017 260.422 752.888 309.665C774.907 359.247 770.662 422.262 748.056 479.821C725.223 537.969 692.271 593.35 643.033 625.469C594.452 657.167 528.572 667.106 437.26 631.802C344.993 596.117 296.758 559.084 276.695 517.468C256.668 475.926 264.108 428.554 286.901 370.528C309.419 313.198 345.485 273.114 396.448 248.416C447.624 223.605 514.638 213.937 599.676 218.976" fill="#86B30F"/>
<path d="M599.666 218.973C683.104 223.913 731.017 260.422 752.888 309.665C774.907 359.247 770.662 422.262 748.056 479.821C725.223 537.969 692.271 593.35 643.033 625.469C594.452 657.167 528.572 667.106 437.26 631.802C344.993 596.117 296.758 559.084 276.695 517.468C256.668 475.926 264.108 428.554 286.901 370.528C309.419 313.198 345.485 273.114 396.448 248.416C447.624 223.605 514.638 213.937 599.676 218.976M753.916 481.21C799.808 364.337 771.894 223.7 600.569 213.554C429.233 203.405 326.913 252.26 281.021 369.133C235.127 486.017 248.871 565.071 434.366 636.8C619.852 708.517 708.011 598.092 753.916 481.21Z" stroke="#155000"/>
<path d="M767.088 331.086L774.258 357.642C786.794 404.075 780.627 458.074 761.108 507.781C715.203 624.662 627.047 735.077 441.56 663.36C334.334 621.899 284.495 577.986 270.394 525.739L263.232 499.212C277.343 551.447 327.183 595.351 434.39 636.805C619.887 708.524 708.043 598.109 753.937 481.225C773.456 431.518 779.624 377.52 767.088 331.086Z" fill="#BFFF15" stroke="#155000"/>
<path d="M214.986 535.295L207.816 508.739C194.74 460.28 197.05 407.049 217.766 354.293C275.978 206.07 457.432 117.721 623.056 156.972C729.733 182.256 803.826 254.311 827.496 342.004L834.656 368.518C810.973 280.844 736.887 208.808 630.227 183.527C464.605 144.266 283.141 232.613 224.937 380.848C204.221 433.605 201.91 486.835 214.986 535.295Z" fill="#BFFF15" stroke="#155000"/>
<path d="M834.415 340.142L841.585 366.695C854.958 416.239 852.585 470.643 831.403 524.574C771.893 676.128 586.381 766.45 417.056 726.315C307.994 700.472 232.249 626.801 208.044 537.149L200.878 510.608C225.087 600.254 300.83 673.917 409.885 699.76C579.213 739.884 764.723 649.572 824.232 498.019C845.414 444.089 847.79 389.676 834.415 340.142Z" fill="#BFFF15" stroke="#155000"/>
<path d="M824.248 498.008C883.754 346.466 794.736 191.086 625.4 150.948C456.075 110.813 270.563 201.135 211.056 352.678C151.547 504.232 240.565 659.611 409.893 699.736C579.218 739.872 764.731 649.549 824.24 497.996L824.248 498.008ZM217.761 354.27C275.965 206.034 457.429 117.688 623.051 156.949C788.684 196.202 875.754 348.195 817.543 496.417C759.328 644.65 577.884 733.002 412.25 693.749C246.627 654.498 159.547 502.503 217.761 354.27Z" fill="#86B30F" stroke="#155000"/>
<path d="M1006.48 227.942L1013.65 254.498C1010.84 244.079 1007.47 233.89 1003.54 223.99C984.245 175.495 951.122 133.657 900.445 102.69C849.712 71.687 780.583 51.1129 688.415 46.3981C500.845 36.8171 368.812 56.1497 272.976 104.646C177.837 152.775 115.619 231.095 70.8418 345.129C36.8185 431.767 27.3976 504.216 44.9192 569.152L37.7487 542.596C20.2247 477.671 29.648 405.212 63.6712 318.573C108.448 204.54 170.664 126.23 265.805 78.0907C361.644 29.5839 493.674 10.2615 681.244 19.8426C773.41 24.5677 842.542 45.1314 893.275 76.1342C943.954 107.091 977.075 148.939 996.367 197.434C1000.31 207.337 1003.67 217.513 1006.48 227.942Z" fill="#BFFF15" stroke="#155000"/>
<path d="M988.006 537.664C1079.19 305.473 1060.89 25.2208 683.368 5.92665C305.854 -13.3882 139.723 82.8194 48.54 315.01C-42.6453 547.211 36.1797 688.731 353.189 846.75C670.195 1004.78 896.831 769.867 988.006 537.664ZM681.183 19.8586C773.351 24.5733 842.48 45.1474 893.213 76.1502C943.89 107.118 977.013 148.955 996.305 197.45C1035.08 294.955 1017.92 419.535 972.934 534.095C927.973 648.575 850.183 762.045 746.613 827.442C695.083 859.984 637.281 880.595 573.613 883.835C509.898 887.086 439.155 872.993 361.907 834.488C204.107 755.838 108.212 682.465 62.2068 601.709C16.6568 521.737 18.8948 432.409 63.6021 318.577C108.379 204.543 170.597 126.223 265.736 78.0938C361.572 29.5973 493.605 10.2647 681.175 19.8458" fill="#86B30F"/>
<path d="M681.183 19.8585C773.351 24.5733 842.48 45.1474 893.213 76.1502C943.89 107.118 977.013 148.955 996.305 197.45C1035.08 294.955 1017.92 419.535 972.934 534.095C927.973 648.575 850.183 762.045 746.613 827.442C695.083 859.984 637.281 880.595 573.613 883.835C509.898 887.086 439.155 872.993 361.907 834.488C204.107 755.838 108.212 682.465 62.2068 601.709C16.6568 521.737 18.8948 432.409 63.6021 318.577C108.379 204.543 170.597 126.223 265.736 78.0938C361.572 29.5973 493.605 10.2647 681.175 19.8458M988.006 537.664C1079.19 305.473 1060.89 25.2208 683.368 5.92663C305.854 -13.3881 139.723 82.8193 48.54 315.01C-42.6452 547.211 36.1796 688.731 353.189 846.75C670.195 1004.78 896.831 769.867 988.006 537.664Z" stroke="#155000"/>
<path d="M1029.19 250.347L1022.02 223.792C1047.84 319.454 1028.98 433.424 988.028 537.689C896.853 769.893 670.219 1004.79 353.213 846.765C158.213 749.566 53.3342 658.61 22.7145 548.945L22.1437 546.831L22.1334 546.829C22.324 547.535 22.5177 548.241 22.7145 548.945L29.3142 573.387C59.1709 683.999 164.141 775.499 360.393 873.323C677.39 1031.35 904.013 796.446 995.198 564.245C1036.15 459.979 1055.01 346.02 1029.19 250.347Z" fill="#BFFF15" stroke="#155000"/>
<path d="M934.094 262.974L941.255 289.492C936.034 270.164 928.179 252.341 917.939 236.114C872.952 164.779 780.354 121.581 655.133 117.154C633.528 116.384 612.569 115.464 592.175 114.547C551.52 112.713 513.19 110.999 476.848 111.002C422.452 111.018 374.235 114.964 332.171 127.825C290.508 140.564 254.545 162.154 224.562 198.22C205.753 220.824 189.12 249.332 175.004 285.277C166.447 307.082 158.805 331.624 152.184 359.244C127.257 463.099 124.835 539.695 140.423 597.442L133.252 570.887C117.665 513.14 120.087 436.543 145.013 332.689C151.635 305.069 159.266 280.524 167.833 258.721C181.949 222.777 198.583 194.268 217.391 171.664C247.372 135.608 283.337 114.009 325.001 101.27C367.062 88.4189 415.279 84.4733 469.677 84.4464C506.022 84.4328 544.36 86.1599 585.005 87.9915C605.408 88.9104 626.357 89.8287 647.963 90.5987C773.184 95.0256 865.779 138.234 910.768 209.558C921.015 225.796 928.873 243.632 934.094 262.974Z" fill="#BFFF15" stroke="#155000"/>
<path d="M946.231 259.754L953.401 286.31C967.791 339.629 962.802 403.338 934.481 475.467C926.425 495.997 916.485 517.2 904.55 539.048C765.09 794.366 599.061 840.609 387.954 790.577C251.351 758.195 157.97 710.57 128.33 600.74L121.167 574.211C150.825 684.025 244.2 731.655 380.784 764.021C591.89 814.053 757.92 767.811 897.379 512.493C909.315 490.645 919.254 469.442 927.32 448.915C955.652 376.788 960.62 313.073 946.231 259.754Z" fill="#BFFF15" stroke="#155000"/>
<path d="M927.299 448.915C1013.45 229.539 883.718 88.0628 649.456 79.7835C628.175 79.0256 607.37 78.098 587.041 77.1861C385.739 68.139 232.572 61.2416 156.106 255.974C147.331 278.327 139.564 303.351 132.85 331.309C61.7661 627.503 169.646 713.986 380.763 764.021C591.869 814.053 757.899 767.81 897.358 512.493C909.294 490.645 919.243 469.445 927.299 448.915ZM647.965 90.6327C773.186 95.0597 865.783 138.257 910.77 209.592C948.041 268.695 953.759 348.904 915.593 446.085C907.707 466.175 897.941 486.973 886.208 508.477C817.142 634.932 742.55 707.602 661.097 743.12C579.772 778.603 488.972 778.194 384.883 753.527C280.093 728.694 203.969 695.428 161.779 633.874C119.552 572.246 109.708 479.835 145.015 332.723C151.637 305.103 159.278 280.561 167.835 258.755C181.951 222.811 198.585 194.302 217.393 171.698C247.376 135.632 283.339 114.042 325.003 101.304C367.066 88.4426 415.283 84.497 469.679 84.4804C506.021 84.4772 544.351 86.1915 585.007 88.0256C605.4 88.942 626.377 89.878 647.983 90.648" fill="#86B30F"/>
<path d="M647.965 90.6327C773.186 95.0597 865.783 138.257 910.77 209.592C948.041 268.695 953.759 348.904 915.593 446.085C907.707 466.175 897.941 486.973 886.208 508.477C817.142 634.932 742.55 707.602 661.097 743.12C579.772 778.603 488.972 778.194 384.883 753.527C280.093 728.694 203.969 695.428 161.779 633.874C119.552 572.246 109.708 479.835 145.015 332.723C151.637 305.103 159.278 280.561 167.835 258.755C181.951 222.811 198.585 194.302 217.393 171.698C247.376 135.632 283.339 114.042 325.003 101.304C367.066 88.4426 415.283 84.497 469.679 84.4805C506.021 84.4772 544.351 86.1915 585.007 88.0256C605.4 88.9419 626.377 89.878 647.983 90.648M927.299 448.915C1013.45 229.539 883.718 88.0629 649.456 79.7835C628.175 79.0256 607.37 78.098 587.041 77.1861C385.739 68.139 232.572 61.2416 156.106 255.974C147.331 278.327 139.564 303.351 132.85 331.309C61.7661 627.503 169.646 713.986 380.763 764.021C591.869 814.053 757.899 767.81 897.358 512.493C909.294 490.645 919.243 469.445 927.299 448.915Z" stroke="#155000"/>
<path d="M686.329 465.085C719.073 381.706 670.097 296.229 576.943 274.154C483.789 252.079 381.749 301.764 349.006 385.143C316.266 468.512 365.242 553.99 458.385 576.062C551.539 598.137 653.589 548.455 686.329 465.085ZM354.02 386.33C385.786 305.443 484.804 257.227 575.172 278.647C665.549 300.069 713.072 383.008 681.305 463.896C649.542 544.773 550.524 592.989 460.146 571.567C369.779 550.147 322.256 467.208 354.02 386.33Z" fill="#86B30F"/>
<path d="M686.329 465.085L686.795 465.268L686.795 465.268L686.329 465.085ZM349.006 385.143L349.472 385.326L349.472 385.326L349.006 385.143ZM458.385 576.062L458.5 575.576L458.385 576.062ZM354.02 386.33L354.486 386.513L354.486 386.513L354.02 386.33ZM575.172 278.647L575.287 278.16L575.172 278.647ZM681.305 463.896L681.771 464.079L681.771 464.079L681.305 463.896ZM460.146 571.567L460.261 571.08L460.146 571.567ZM686.334 465.087L686.799 465.269L686.799 465.269L686.334 465.087ZM576.947 274.155L576.832 274.641L576.947 274.155ZM349.011 385.144L349.476 385.327L349.476 385.327L349.011 385.144ZM458.39 576.063L458.505 575.577L458.39 576.063ZM575.176 278.648L575.061 279.134L575.061 279.134L575.176 278.648ZM681.31 463.897L681.775 464.08L681.775 464.08L681.31 463.897ZM460.151 571.568L460.266 571.081L460.151 571.568ZM354.025 386.331L354.49 386.514L354.49 386.514L354.025 386.331ZM685.864 464.903C718.482 381.842 669.724 296.654 576.828 274.64L577.058 273.667C670.469 295.803 719.663 381.57 686.795 465.268L685.864 464.903ZM576.828 274.64C483.891 252.617 382.115 302.201 349.472 385.326L348.541 384.96C381.384 301.326 483.687 251.541 577.058 273.667L576.828 274.64ZM349.472 385.326C316.856 468.376 365.614 553.564 458.5 575.576L458.27 576.549C364.869 554.415 315.675 468.648 348.541 384.96L349.472 385.326ZM458.5 575.576C551.437 597.599 653.223 548.017 685.864 464.903L686.795 465.268C653.954 548.892 551.641 598.675 458.27 576.549L458.5 575.576ZM353.555 386.148C385.421 305.005 484.702 256.689 575.287 278.16L575.056 279.133C484.906 257.765 386.152 305.88 354.486 386.513L353.555 386.148ZM575.287 278.16C665.922 299.643 713.662 382.872 681.771 464.079L680.84 463.713C712.481 383.144 665.177 300.494 575.056 279.133L575.287 278.16ZM681.771 464.079C649.907 545.211 550.625 593.527 460.031 572.053L460.261 571.08C550.422 592.451 649.176 544.336 680.84 463.713L681.771 464.079ZM460.031 572.053C369.406 550.573 321.666 467.344 353.555 386.148L354.486 386.513C322.847 467.072 370.151 549.721 460.261 571.08L460.031 572.053ZM685.869 464.904C718.486 381.843 669.728 296.655 576.832 274.641L577.063 273.668C670.474 295.804 719.668 381.571 686.799 465.269L685.869 464.904ZM349.476 385.327C316.861 468.377 365.619 553.565 458.505 575.577L458.274 576.55C364.873 554.416 315.68 468.649 348.545 384.961L349.476 385.327ZM458.505 575.577C551.442 597.6 653.228 548.018 685.869 464.904L686.799 465.269C653.958 548.893 551.645 598.676 458.274 576.55L458.505 575.577ZM575.291 278.161C665.926 299.644 713.667 382.873 681.775 464.08L680.844 463.714C712.485 383.145 665.181 300.495 575.061 279.134L575.291 278.161ZM681.775 464.08C649.911 545.212 550.63 593.528 460.035 572.055L460.266 571.081C550.427 592.452 649.181 544.337 680.844 463.714L681.775 464.08ZM460.035 572.055C369.41 550.574 321.67 467.345 353.559 386.149L354.49 386.514C322.851 467.073 370.156 549.723 460.266 571.081L460.035 572.055ZM576.832 274.641C574.966 274.199 573.097 273.786 571.225 273.401L571.426 272.422C573.308 272.808 575.187 273.224 577.063 273.668L576.832 274.641ZM573.679 277.786C574.217 277.909 574.754 278.034 575.291 278.161L575.061 279.134C574.527 279.007 573.992 278.883 573.457 278.762L573.679 277.786ZM453.045 284.963C406.077 304.027 367.471 339.505 349.476 385.327L348.545 384.961C366.655 338.847 405.486 303.187 452.669 284.037L453.045 284.963ZM353.559 386.149C370.414 343.23 406.13 309.501 449.423 290.421L449.826 291.337C406.736 310.327 371.234 343.878 354.49 386.514L353.559 386.149Z" fill="#155000"/>
<path d="M692 378.5L699.354 404.098C706.717 431.353 705.406 461.289 693.758 490.967C661.017 574.336 558.967 624.018 465.813 601.944C405.815 587.726 364.147 547.204 350.83 497.881L343.662 471.333C356.981 520.653 398.648 561.171 458.643 575.388C551.797 597.463 653.846 547.78 686.587 464.411C698.235 434.733 699.353 405.753 692 378.5Z" fill="#BFFF15" stroke="#155000"/>
</g>
<defs>
<clipPath id="clip0_1324_21271">
<rect width="1051" height="930" fill="white"/>
</clipPath>
</defs>
</svg>
